HIERARCHY
ROOT Hips
{
	OFFSET -3.958830 18.904000 13.208200
	CHANNELS 6 Xposition Yposition Zposition Zrotation Yrotation Xrotation 
	JOINT LHipJoint
	{
		OFFSET 0.000000 0.000000 0.000000
		CHANNELS 3 Zrotation Yrotation Xrotation
		JOINT LeftUpLeg
		{
			OFFSET 1.800000 -1.400000 0.085000
			CHANNELS 3 Zrotation Yrotation Xrotation
			JOINT LeftLeg
			{
				OFFSET 2.215000 -6.000000 0.000000
				CHANNELS 3 Zrotation Yrotation Xrotation
				JOINT LeftFoot
				{
					OFFSET 2.500000 -6.900000 0.000000
					CHANNELS 3 Zrotation Yrotation Xrotation
					JOINT LeftToeBase
					{
						OFFSET 0.200000 -0.500000 1.950000
						CHANNELS 3 Zrotation Yrotation Xrotation
						End Site
						{
							OFFSET 0.000000 0.000000 0.000000
						}
					}
				}
			}
		}
	}
	JOINT RHipJoint
	{
		OFFSET 0.000000 0.000000 0.000000
		CHANNELS 3 Zrotation Yrotation Xrotation
		JOINT RightUpLeg
		{
			OFFSET -1.800000 -1.400000 0.085000
			CHANNELS 3 Zrotation Yrotation Xrotation
			JOINT RightLeg
			{
				OFFSET -2.215000 -6.000000 0.000000
				CHANNELS 3 Zrotation Yrotation Xrotation
				JOINT RightFoot
				{
					OFFSET -2.500000 -6.900000 0.000000
					CHANNELS 3 Zrotation Yrotation Xrotation
					JOINT RightToeBase
					{
						OFFSET -0.200000 -0.500000 1.950000
						CHANNELS 3 Zrotation Yrotation Xrotation
						End Site
						{
							OFFSET 0.000000 0.000000 0.000000
						}
					}
				}
			}
		}
	}
	JOINT LowerBack
	{
		OFFSET 0.000000 0.000000 0.000000
		CHANNELS 3 Zrotation Yrotation Xrotation
		JOINT Spine
		{
			OFFSET -0.087000 1.940000 -0.288900
			CHANNELS 3 Zrotation Yrotation Xrotation
			JOINT Spine1
			{
				OFFSET 0.000000 1.950000 0.060000
				CHANNELS 3 Zrotation Yrotation Xrotation
				JOINT Neck
				{
					OFFSET 0.000000 0.000000 0.000000
					CHANNELS 3 Zrotation Yrotation Xrotation
					JOINT Neck1
					{
						OFFSET 0.000000 1.600000 0.340000
						CHANNELS 3 Zrotation Yrotation Xrotation
						JOINT Head
						{
							OFFSET 0.000000 1.667000 -0.240000
							CHANNELS 3 Zrotation Yrotation Xrotation
							End Site
							{
								OFFSET 0.000000 0.000000 0.000000
							}
						}
					}
				}
				JOINT LeftShoulder
				{
					OFFSET 0.000000 0.000000 0.000000
					CHANNELS 3 Zrotation Yrotation Xrotation
					JOINT LeftArm
					{
						OFFSET 2.700000 1.550000 -0.730000
						CHANNELS 3 Zrotation Yrotation Xrotation
						JOINT LeftForeArm
						{
							OFFSET 5.450000 0.000000 0.000000
							CHANNELS 3 Zrotation Yrotation Xrotation
							JOINT LeftHand
							{
								OFFSET 3.450000 0.000000 0.000000
								CHANNELS 3 Zrotation Yrotation Xrotation
								JOINT LeftHandIndex1
								{
									OFFSET 0.750000 0.000000 0.000000
									CHANNELS 3 Zrotation Yrotation Xrotation
									End Site
									{
										OFFSET 0.000000 0.000000 0.000000
									}
								}
							}
						}
					}
				}
				JOINT RightShoulder
				{
					OFFSET 0.000000 0.000000 0.000000
					CHANNELS 3 Zrotation Yrotation Xrotation
					JOINT RightArm
					{
						OFFSET -2.700000 1.550000 -0.730000
						CHANNELS 3 Zrotation Yrotation Xrotation
						JOINT RightForeArm
						{
							OFFSET -5.450000 0.000000 0.000000
							CHANNELS 3 Zrotation Yrotation Xrotation
							JOINT RightHand
							{
								OFFSET -3.450000 0.000000 0.000000
								CHANNELS 3 Zrotation Yrotation Xrotation
								JOINT RightHandIndex1
								{
									OFFSET -0.750000 0.000000 0.000000
									CHANNELS 3 Zrotation Yrotation Xrotation
									End Site
									{
										OFFSET 0.000000 0.000000 0.000000
									}
								}
							}
						}
					}
				}
			}
		}
	}
}
MOTION
Frames: 6
Frame Time: 0.016667
-1.858870 16.286090 3.051890 -6.138124 -24.078708 -9.228795 -14.914566 12.135752 3.413585 -3.770722 -3.490985 -18.563651 -12.721892 9.186928 24.367541 0.030407 4.926003 2.887765 0.495840 0.405800 0.125360 18.428465 -10.756324 4.025279 -5.939085 9.488974 -11.925133 26.845364 -21.744735 48.958997 -1.962781 -10.369310 1.003501 0.175780 0.120070 0.052730 -4.139962 0.140399 -8.806609 13.662510 1.364874 20.844438 -6.359005 6.141978 19.739508 3.962175 -3.006884 -22.619726 -5.125050 -12.364656 35.049965 7.563880 -16.926130 -18.026110 -12.805568 -29.465017 6.639391 -27.871925 -12.210360 -10.467247 48.195920 -2.894917 -6.254644 -3.540734 3.410914 0.420930 -0.169550 0.101260 0.330570 6.204334 38.932032 19.220480 21.521749 22.472836 -16.794028 -43.078870 -0.259260 -7.172490 2.932864 -2.202332 -0.027830 0.279730 -0.167530 0.085530 
-1.903780 16.275770 3.096660 -5.836659 -23.422528 -10.245560 -15.018605 12.186888 3.320384 -4.283200 -3.461798 -17.338448 -11.711389 9.106280 25.077186 0.048247 4.942262 2.882935 0.495680 0.394330 0.162480 18.345183 -10.284675 4.381851 -9.933104 10.906237 -16.092591 32.242296 -26.097603 51.425525 -2.256557 -11.377650 0.705748 0.159100 0.070610 0.027990 -3.879226 -0.509659 -8.995111 12.319666 1.268837 22.322197 -5.548742 5.746861 18.790590 3.949894 -2.885459 -23.291161 -5.711893 -12.056505 37.050148 7.287660 -16.796570 -18.106870 -12.827818 -30.441064 6.909833 -27.227915 -12.661896 -9.898666 45.641380 1.023276 -4.447757 -3.557456 3.375847 0.468390 -0.210950 0.135810 0.316210 6.245117 39.692162 19.016707 22.287019 20.774318 -15.805540 -41.105394 -1.986009 -5.915920 2.997570 -2.125400 -0.039260 0.280760 -0.187160 0.062470 
-1.938750 16.260570 3.131590 -5.992830 -22.118509 -11.032848 -15.076465 12.207656 3.255693 -3.784100 -3.593699 -16.726963 -11.753981 9.404041 26.076789 0.096653 5.129263 2.805088 0.503910 0.395920 0.190820 18.303645 -9.876796 4.703708 -13.996592 11.291493 -19.716320 37.715484 -29.927787 51.686224 -2.474495 -11.979266 0.534066 0.139310 0.020550 0.019520 -3.735784 -1.051101 -9.153231 11.958463 0.447772 24.163113 -5.549871 4.981358 17.138989 4.089649 -2.846522 -23.555831 -6.366137 -11.267953 38.871926 7.802160 -16.277770 -19.449040 -14.221433 -30.867524 7.406995 -26.515248 -11.159171 -10.027239 44.795845 0.972225 -4.260232 -3.520746 3.337675 0.526400 -0.259260 0.182290 0.304630 7.185938 39.870279 18.432565 22.920178 19.177157 -15.692912 -40.807825 -2.150064 -5.513138 3.008567 -2.048918 -0.035690 0.276630 -0.199380 0.044260 
-1.965860 16.249920 3.150700 -6.194610 -19.542899 -11.775715 -15.131403 12.196822 3.247421 -3.503726 -4.112051 -16.606518 -11.708035 9.777104 27.948962 0.198885 5.397292 2.693153 0.536390 0.440100 0.222080 18.271695 -9.517809 4.950761 -18.540252 10.339713 -22.464572 43.889621 -33.442634 49.837318 -2.620617 -12.223431 0.467531 0.129710 -0.036140 0.030400 -3.598351 -1.565115 -9.295432 11.451996 -0.707529 25.868633 -5.503325 3.685399 15.579594 4.170889 -2.481793 -23.720187 -6.315892 -10.613877 40.575987 8.155070 -15.659720 -20.602250 -15.826590 -31.240169 8.126234 -25.450546 -8.817830 -10.248112 43.886329 -0.612569 -4.511069 -3.467360 3.327737 0.554720 -0.300950 0.242380 0.310450 8.286114 39.693248 17.728554 23.323180 17.831007 -15.404911 -40.359165 -1.639017 -5.344668 3.002644 -1.996708 0.004110 0.250780 -0.235280 0.046430 
-2.010130 16.225960 3.175270 -6.791260 -18.329306 -12.126184 -15.141257 12.106021 3.190295 -2.276336 -4.375067 -16.711535 -12.442717 10.469792 29.411731 0.249014 5.796342 2.540407 0.548250 0.439940 0.234460 18.294031 -9.275207 5.180648 -22.096167 9.691793 -24.923725 49.272194 -35.824268 47.757018 -2.679840 -12.275689 0.427790 0.133950 -0.047000 0.037440 -3.631298 -1.719362 -9.368508 12.111056 -1.425733 26.577853 -5.719982 3.141504 14.946454 4.216403 -2.640243 -23.244825 -6.844125 -10.582855 40.777802 8.707790 -15.971180 -21.574650 -16.497612 -30.965468 7.915602 -24.383290 -8.992400 -9.726871 42.423868 1.830826 -3.471790 -3.502553 3.318043 0.574360 -0.320730 0.249150 0.298000 8.762537 39.247527 17.248982 23.569322 16.645848 -15.124687 -39.875979 -1.691606 -5.090069 2.993149 -1.961774 0.005700 0.251300 -0.222980 0.039690 
-2.071280 16.197090 3.204380 -7.010007 -17.553363 -12.014841 -15.212123 11.939376 3.141749 -0.636879 -4.646994 -17.281525 -14.095426 11.569855 30.637821 0.333277 6.298448 2.351228 0.568780 0.469690 0.236550 18.285720 -8.955659 5.434551 -25.791572 8.895712 -28.142357 54.623089 -38.736783 46.420083 -2.747972 -12.424498 0.390879 0.159040 -0.041030 0.050630 -3.538998 -1.871986 -9.483537 11.288030 -1.186995 26.343873 -4.461741 2.624853 15.112465 4.045799 -2.397757 -22.855776 -6.116166 -10.861972 39.713587 8.111070 -15.834630 -20.996100 -16.495180 -30.959096 7.732187 -24.386229 -9.493243 -9.480729 41.848974 3.619271 -2.825219 -3.551536 3.341622 0.547770 -0.299400 0.237800 0.302400 9.077702 38.810502 16.982595 23.263376 15.268256 -14.820134 -39.099383 -1.377978 -5.016937 2.972808 -1.970901 0.018010 0.240460 -0.225120 0.043190 
